<svg xmlns="http://www.w3.org/2000/svg" xmlns:xlink="http://www.w3.org/1999/xlink" width="552.65" height="529.754" viewBox="0 0 552.65 529.754"><defs><linearGradient id="a" x1="1.977" y1="2.388" x2="3.303" y2="4.065" gradientUnits="objectBoundingBox"><stop offset="0" stop-color="#cddbf2"/><stop offset="1" stop-color="#3472d6"/></linearGradient></defs><g transform="translate(0 0)"><path d="M282.694,352.446S396.507,418.274,445.2,388.522s22.762-102.536-15.8-108.238-44.262-66.46-8.854-80.383S478.08,122.508,455.949,90s-47.42-50.861-94.218-38.836-67.656,15.369-90.418-3.708S226.64-.7,185.432.013s-75,23.294-86.245,42.285S62.018,93.465,34.834,99.531s-46.128,41.135-27.175,82.462,17.086,61.478,0,87.8,4.614,90.252,67.11,86.448,62.5,40.752,104.863,46.645S239.064,342.318,282.694,352.446Z" transform="translate(41.833 27.909)" fill="url(#a)"/><path d="M37.839,0c20.9,0,37.839,14.268,37.839,31.86S58.735,63.72,37.839,63.72,0,49.452,0,31.86,16.943,0,37.839,0Z" transform="translate(316.505)" fill="#d2dff6"/><ellipse cx="19.508" cy="19.528" rx="19.508" ry="19.528" transform="translate(513.634 203.339)" fill="#d2dff6"/><path d="M24.536,51.2c11.85-1.341,20.168-13.865,18.579-27.97S30.624-1.224,18.774.117-1.394,13.982.195,28.087,12.686,52.54,24.536,51.2Z" transform="translate(0 229.534)" fill="#d2dff6"/></g><g transform="translate(344.033 51.726)"><path d="M19.837,1.32s-5.493-2.362-8.4-.768-9,4.32-10.824,9.995S1.636,24.8,1.636,24.8Z" transform="translate(68.023 90.333)" fill="#0549aa"/><path d="M34.35,40.826a46.563,46.563,0,0,0,1.034-11.6c-.163-7.038-5.436-21.41-8.833-24.012S8.139-1.448,2.913.521,1.086,6.867,1.086,6.867,27.738,29.641,30.216,33.721,34.35,40.826,34.35,40.826Z" transform="translate(19.853 56.157)" fill="#fc9001"/><path d="M26.314,0S3.921,1.421.906,10.177,3.031,44.712,7.031,53.228s11.6,17.484,11.6,17.484-6.574-25.7-3.215-41.467A118.684,118.684,0,0,1,26.314,0Z" transform="translate(51.479 12.224)" fill="#0549aa"/><path d="M11.6,82.936S21.811,48.795,48.262,37.888s46.6.883,46.6.883S71.7,7.548,56.157,2.633s-25.111-1.44-25.111-1.44L35.2,17.966,24.519,3.948C24.509,3.967-20.622,20.481,11.6,82.936Z" transform="translate(58.509 0)" fill="#8294b6"/><path d="M13.991,12.544a36.883,36.883,0,0,1-3.349-8.228C14.317,1.647,19.245-.11,25.886.005c14.508.25,28.978,19.481,28.317,40.4C41.074,27.378,31.791,21.752,18.939,21.281,11.455,21,6.019,19.745,0,27.407c0,0,.01-9.591,5.254-17.426A39.489,39.489,0,0,0,13.991,12.544Z" transform="translate(0 56.576)" fill="#8294b6"/><path d="M12.6,3.447A20.923,20.923,0,0,1,23.913,0a108.818,108.818,0,0,0,.766,11.1c1.148-3.792.364-7.585.775-11.089A32.331,32.331,0,0,1,37.531,2.928c-.306,4.244-.976,8.324.785,12.856a34.8,34.8,0,0,1,2.144-11.4A39.806,39.806,0,0,1,56.03,20.2C38.66,17.167,28.124,18,17.071,25.241,10.64,29.456,5.453,31.636,4.1,41.554,4.094,41.554-9.4,18.444,12.6,3.447Z" transform="translate(66.895 90.233)" fill="#8294b6"/><path d="M0,101.829H3.761V0H1.78Z" transform="translate(59.161 79.768)" fill="#8294b6"/><path d="M5.7,75.253H74.2L79.886,5.021A4.46,4.46,0,0,0,75.7,0H4.16A4.428,4.428,0,0,0,.016,4.973Z" transform="translate(21.086 181.587)" fill="#8294b6"/></g><g transform="translate(77.966 308.417)"><path d="M22.583,0l2.6.315L2.6,180.953,0,180.638Z" transform="translate(0 6.079)" fill="#fff"/><path d="M2.613,0,0,.315,22.583,180.953l2.613-.315Z" transform="translate(353.722 6.079)" fill="#fff"/><rect width="367.498" height="11.087" transform="translate(5.763 0)" fill="#fff"/></g><path d="M24.283,31H0V0H24.291V4.191H33.1a3.829,3.829,0,0,1,3.118,1.714,4.5,4.5,0,0,1,.594,3.81l-4.589,15.9a3.483,3.483,0,0,1-1.339,2.347,4.588,4.588,0,0,1-2.845.941l-3.759-.18V31Zm0-22.768V24.664l3.844.19a.886.886,0,0,0,.358-.07L33.178,8.512a.257.257,0,0,0-.038-.23l-.084-.05Z" transform="translate(395.65 278.838)" fill="#fff"/><g transform="translate(180.985 149.698)"><rect width="19.944" height="40.019" transform="translate(77.146 111.959)" fill="#8294b6"/><rect width="174.245" height="15.077" transform="translate(0 142.686)" fill="#8294b6"/><rect width="38.243" height="6.885" transform="translate(124.557 135.802)" fill="#8294b6"/><rect width="108" height="6.885" transform="translate(6.058 135.802)" fill="#b2b2b2"/><path d="M169.039,116.122H5.2A5.189,5.189,0,0,1,0,110.937V5.185A5.189,5.189,0,0,1,5.2,0H169.039a5.189,5.189,0,0,1,5.2,5.185V110.927A5.192,5.192,0,0,1,169.039,116.122Z" transform="translate(0 0)" fill="#8294b6"/><path d="M156.579,0H2.536A2.531,2.531,0,0,0,0,2.53V98.82a2.538,2.538,0,0,0,2.536,2.53H156.579a2.531,2.531,0,0,0,2.536-2.53V2.53A2.525,2.525,0,0,0,156.579,0Z" transform="translate(7.56 7.219)" fill="#fff"/><path d="M130.9,32.542H4.441A4.439,4.439,0,0,1,0,28.111V4.431A4.439,4.439,0,0,1,4.441,0H130.9a4.439,4.439,0,0,1,4.441,4.431V28.1A4.441,4.441,0,0,1,130.9,32.542Z" transform="translate(21.035 16.176)" fill="#e1eaf9"/><path d="M132.347,8.021H2.986A2.986,2.986,0,0,1,0,5.042V2.979A2.986,2.986,0,0,1,2.986,0H132.347a2.986,2.986,0,0,1,2.986,2.979V5.042A2.986,2.986,0,0,1,132.347,8.021Z" transform="translate(21.045 87.848)" fill="#e1eaf9"/><path d="M58.809,22.9H4.441A4.439,4.439,0,0,1,0,18.467V4.431A4.439,4.439,0,0,1,4.441,0H58.809A4.439,4.439,0,0,1,63.25,4.431V18.467A4.439,4.439,0,0,1,58.809,22.9Z" transform="translate(21.045 56.824)" fill="#e1eaf9"/><path d="M58.809,22.9H4.441A4.439,4.439,0,0,1,0,18.467V4.431A4.439,4.439,0,0,1,4.441,0H58.809A4.439,4.439,0,0,1,63.25,4.431V18.467A4.433,4.433,0,0,1,58.809,22.9Z" transform="translate(93.128 56.824)" fill="#e1eaf9"/></g><g transform="translate(121.244 121.054)"><path d="M4.865,2.238S.319,6.155.032,10.131,1.381,16,5.526,18.2s22.262,1.772,30.55-.239A11.384,11.384,0,0,0,44.881,6.6c-.23-1.217-5.6-4.09-10.25-5.623S23.777,0,18.2.753,5.535,1.605,4.865,2.238Z" transform="translate(168.184 343.567)" fill="#d58214"/><path d="M2.838,4.513S-.6,8.651.091,12.147s2.728,4.866,7.255,6.092,21.879-2.117,29.373-5.211,4.6-9.062,4.087-10.077S33.053,1.1,28.2.547s-7.695-1.063-12.882.508S3.336,3.852,2.838,4.513Z" transform="translate(96.956 334.482)" fill="#d58214"/><path d="M.8,4.445S7.129,0,12.8,0,25.792,1.973,28.836,2.222,40.952,3.947,41.345,8.065s1.292,7.893-.431,7.893-6.25-4.109-9.121-3.7-12.739,2.8-17.84,2.222S6.8,13.334,4.334,11.523-1.58,5.345.8,4.445Z" transform="translate(174.639 156.737)" fill="#fff"/><path d="M56.875,11.358S55.094,6.051,44.9,1.99,13.557.888,9.394,3.743s-8.327,9.1-8.327,9.1S-2.656,34.117,3.8,44.1,19.912,67.462,24.076,67.462s15.887,3.726,21.592-6.581S59.66,16.243,56.875,11.358Z" transform="translate(35.158 0)" fill="#0549aa"/><path d="M1.076,1.789S3.593-1.171,6.282.524,13.02,4.806,12.417,9.9,5.622,22.68,1.9,18.734,1.076,1.789,1.076,1.789Z" transform="translate(34.097 9.148)" fill="#fc9001"/><path d="M0,74.135S17.754,76.769,28.607,63.77,43.566,39.737,42.083,26.087,39.451,7.006,39.451,7.006s.325-3.784-5.752-4.77-14.461-3.8-19.237-1.082S2.3,16.872,3.445,28.06s10.681,25.834,8.384,33.727C9.532,69.7,4.269,73.483,0,74.135Z" transform="translate(0 7.982)" fill="#0549aa"/><path d="M24.836,74.993,25.985,61.42s9.532-.163,14.222-2.548,5.838-34.053,4.6-40.145S37.537,1.753,35.728,0a51.776,51.776,0,0,0-2.709,5.153,41.387,41.387,0,0,1-2.756,6.993c-1.9,3.784-5.427,16.4-5.427,16.4s-7.647-4.55-9.207-2.74a9.546,9.546,0,0,0-1.072,9.464c1.646,3.458,4.766,6.418,7.236,7.318s2.546,0,2.546,0S21.458,53.45,16.28,55.337s-13.4,1.81-13.4,1.81L0,72.033" transform="translate(55.051 9.27)" fill="#fff"/><path d="M5.915,65.922s4.163,4.828,9.532,3.841,6.9-9.981,7.561-17.769S28.272,0,28.272,0L1.531.661,0,5.594S5.494,44.427,5.924,52.1,4.6,63.719,5.915,65.922Z" transform="translate(93.449 279.107)" fill="#fc9001"/><path d="M1.968,9.405S23.5,3.754,34.02,2.441s32.608-7.51,36.991,6.964.22,119.114-2.852,124.823-8.106,9.876-13.59,9.435-3.579-3.075-4.747-6.8-1.608-52.215-5.111-64.495S33.973,36.609,33.973,36.609-9.651,32.222,1.968,9.405Z" transform="translate(120.375 213.608)" fill="#fc9001"/><path d="M127.559,88.164V84.543s-28.176-7.615-57.865-8.382V0H54.573V67.206a6.159,6.159,0,0,0-5.159,9.531,254.76,254.76,0,0,0-45.059,7.8v2.778a7.476,7.476,0,1,0,7.791.958h44.7l4.766,16.073a9.373,9.373,0,1,0,6.824.661c.01-4.924-.057-11.926-.5-16.734h50.428a7.479,7.479,0,1,0,9.2-.105Z" transform="translate(32.263 285.966)" fill="#7081a2"/><path d="M0,72.172s7.456-45.634,12.059-55.28S25.43-.216,29.593,0,66.412,1.317,80.222,8.118s14.9,14.694,23.018,37.952,5.044,69.322,11.179,80.07,32.435,54.619,32.435,54.619-14.031,13.161-23.669,13.161-41.642,1.1-44.935-10.087S5.484,111.446,0,72.172Z" transform="translate(14.94 78.664)" fill="#0549aa"/><path d="M164.044,114.688s1.972,6.581-.823,10.69-28.77,22.52-38.465,22.683-91.238-14.79-95.019-15.939S.662,58.652,0,22.788C-.037,12.213.815,1.13.815,1.13S14.731,10.077,25.8,10.815c18.3,1.236,38.79.374,48.323-3.247S85.306,0,85.306,0s13.476,118.462,30.579,122.083,27.286-.326,31.564-5.268,8.547-7.682,9.867-7.788S164.044,114.688,164.044,114.688Z" transform="translate(5.473 145.453)" fill="#7081a2"/><path d="M91.155,69.667s6.738,3.458,4.929,6.581S59.093,95.5,47.589,97.139s-16.27,1.81-29.756-16.782S1.668,29.685.3,18.334,2.29-2.041,9.612.4,17.919,2.95,20.341,7.768s26.75,62.071,26.75,62.071S82.273,67.2,91.155,69.667Z" transform="translate(88.067 91.102)" fill="#0549aa"/></g></svg>